<svg width="696" height="894" viewBox="0 0 696 894" fill="none" xmlns="http://www.w3.org/2000/svg">
<path fill-rule="evenodd" clip-rule="evenodd" d="M338.198 1.06189C336.273 1.57689 331.098 3.06289 326.698 4.36189C322.298 5.66189 315.964 6.98389 312.623 7.30089C290.767 9.37289 260.04 28.5599 242.73 50.9439C228.703 69.0819 222.665 80.1379 212.696 105.944C208.977 115.569 205.146 125.469 204.181 127.944C203.216 130.419 196.92 146.844 190.19 164.444C183.459 182.044 176.636 199.819 175.028 203.944C173.42 208.069 170.824 214.819 169.26 218.944C158.162 248.212 154.983 256.555 151.735 264.944C149.712 270.169 147.229 276.469 146.219 278.944C145.208 281.419 140.245 294.469 135.191 307.944C130.137 321.419 125.403 333.794 124.673 335.444C123.942 337.094 119.667 348.119 115.171 359.944C110.676 371.769 104.99 386.619 102.536 392.944C93.329 416.673 78.8701 454.625 77.1861 459.485C76.2241 462.258 74.4841 466.621 73.3181 469.18C72.1521 471.74 71.1981 474.158 71.1981 474.553C71.1981 474.949 69.207 480.261 66.773 486.358C64.34 492.455 59.5681 504.869 56.1681 513.944C52.7691 523.019 46.9051 538.319 43.1371 547.944C39.3701 557.569 32.652 575.119 28.21 586.944C23.767 598.769 19.75 609.344 19.282 610.444C9.95905 632.369 4.70005 651.093 1.25205 674.637C-1.24795 691.704 0.12605 725.305 4.21505 747.086C12.3281 790.308 38.3261 832.297 70.1981 853.659C96.8721 871.537 130.475 876.684 157.663 867.056C160.944 865.895 165.25 864.944 167.231 864.944C173.881 864.944 191.83 859.26 202.167 853.88C229.837 839.48 250.724 815.806 266.519 780.944C268.491 776.591 278.653 750.446 289.682 721.347C294.289 709.194 299.238 696.369 300.681 692.847C302.124 689.325 306.178 678.794 309.689 669.444C313.2 660.094 318.152 647.044 320.694 640.444C323.236 633.844 326.601 625.069 328.171 620.944C329.742 616.819 335.966 600.619 342.002 584.944C348.039 569.269 357.109 545.644 362.158 532.444C383.732 476.042 402.607 426.917 405.383 419.944C407.025 415.819 412.872 400.519 418.377 385.944C423.881 371.369 429.286 357.194 430.388 354.444C432.159 350.026 433.006 347.838 436.198 339.444C436.616 338.344 437.671 335.644 438.542 333.444C439.413 331.244 442.415 323.369 445.213 315.944C448.012 308.519 453.028 295.469 456.36 286.944C482.407 220.304 485.46 208.01 485.54 169.444C485.59 145.62 484.738 138.039 479.525 115.944C475.626 99.4159 466.229 76.0459 458.903 64.6579C457.058 61.7899 454.232 57.3729 452.623 54.8419C442.594 39.0639 421.514 20.0149 403.698 10.6299C397.922 7.58689 387.39 3.76889 378.554 1.51289C371.628 -0.255113 344.257 -0.561112 338.198 1.06189ZM381.23 6.30889C399.809 10.8899 418.24 21.7649 433.198 36.9689C439.648 43.5259 446.958 51.9699 448.565 54.7199C449.952 57.0929 454.758 64.5479 457.091 67.9439C462.35 75.6009 471.893 98.9559 475.682 113.444C480.971 133.665 482.568 146.589 482.538 168.944C482.495 201.347 478.832 219.616 465.194 255.444C462.89 261.494 460.427 267.794 459.719 269.444C459.012 271.094 457.877 274.019 457.198 275.944C456.519 277.869 455.361 280.82 454.625 282.502C453.065 286.065 443.413 311.268 442.2 314.944C441.457 317.196 434.807 334.679 428.697 350.444C427.418 353.744 422.235 367.244 417.18 380.444C412.125 393.644 406.904 407.254 405.578 410.688C401.619 420.939 398.725 428.52 391.738 446.944C388.088 456.569 382.442 471.194 379.191 479.444C375.941 487.694 370.991 500.519 368.191 507.944C360.208 529.112 357.817 535.36 351.347 551.944C348.021 560.469 343.005 573.519 340.2 580.944C331.983 602.694 329.067 610.235 327.514 613.747C326.158 616.816 321.948 627.845 315.226 645.944C313.694 650.069 311.308 656.369 309.923 659.944C296.684 694.131 281.657 733.467 279.552 739.444C278.778 741.644 277.741 744.344 277.249 745.444C276.757 746.544 273.573 754.644 270.174 763.444C260.266 789.091 253.032 802.342 240.331 818.108C214.745 849.867 174.034 867.045 139.854 860.505C110.824 854.951 87.0301 839.579 66.5961 813.178C63.0771 808.632 60.1981 804.617 60.1981 804.257C60.1981 803.896 59.5441 802.879 58.7461 801.997C56.2411 799.229 45.2271 776.348 42.2401 767.707C38.5701 757.089 34.6851 742.347 33.2111 733.444C32.5741 729.594 31.635 724.006 31.125 721.027C29.831 713.467 29.966 679.303 31.33 668.996C33.301 654.108 40.2881 627.098 44.6101 617.659C45.4191 615.891 48.3801 608.369 51.1891 600.944C53.9981 593.519 57.587 584.069 59.166 579.944C60.744 575.819 63.8961 567.494 66.1701 561.444C68.4441 555.394 71.4471 547.818 72.8451 544.609C74.2431 541.4 75.7521 537.575 76.1991 536.109C76.6461 534.643 80.2011 525.119 84.0991 514.944C87.9971 504.769 91.1891 496.024 91.1921 495.51C91.1951 494.996 92.039 492.746 93.066 490.51C94.093 488.274 96.367 482.619 98.119 477.944C99.871 473.269 101.992 467.89 102.832 465.99C103.673 464.09 105.029 460.49 105.847 457.99C106.664 455.49 107.934 452.094 108.67 450.444C110.031 447.388 114.786 434.964 122.829 413.444C125.296 406.844 127.928 400.094 128.677 398.444C129.845 395.873 134.901 382.655 146.657 351.444C148.107 347.594 150.172 342.536 151.246 340.205C152.319 337.873 153.196 335.623 153.194 335.205C153.191 334.786 154.954 329.944 157.111 324.444C159.268 318.944 162.899 309.494 165.179 303.444C168.896 293.585 176.367 274.137 185.732 249.944C187.542 245.269 190.383 237.844 192.046 233.444C193.709 229.044 197.348 219.571 200.134 212.394C202.919 205.216 205.198 199.024 205.198 198.633C205.198 198.242 206.071 196.015 207.137 193.683C209.447 188.634 214.405 175.766 221.678 155.944C227.893 139.007 233.636 124.191 236.307 118.205C237.347 115.873 238.198 113.722 238.198 113.423C238.198 111.999 248.873 85.4959 252.458 78.0199C262.976 56.0869 280.392 35.3699 299.698 21.8279C312.453 12.8809 331.251 5.65989 347.198 3.58189C354.598 2.61789 371.877 4.00189 381.23 6.30889ZM306.698 12.9439C306.358 13.4939 305.605 13.9439 305.024 13.9439C302.682 13.9439 290.951 23.1229 279.988 33.5339C270.118 42.9069 256.4 62.4989 248.893 77.9439C245.616 84.6849 235.485 110.344 231.519 121.944C230.673 124.419 229.628 126.894 229.198 127.444C228.768 127.994 227.72 130.469 226.87 132.944C224.795 138.985 209.547 178.894 195.731 214.444C193.166 221.044 188.868 232.294 186.18 239.444C183.492 246.594 179.441 257.169 177.178 262.944C174.914 268.719 171.547 277.494 169.696 282.444C166.548 290.858 155.609 319.598 148.191 338.944C146.398 343.619 144.358 348.794 143.658 350.444C142.958 352.094 139.606 360.869 136.209 369.944C132.813 379.019 128.074 391.394 125.679 397.444C123.284 403.494 119.024 414.519 116.212 421.944C113.401 429.369 109.727 439.044 108.05 443.444C106.372 447.844 104.07 453.919 102.935 456.944C101.8 459.969 100.557 462.894 100.172 463.444C99.7881 463.994 99.152 465.787 98.758 467.428C98.364 469.07 96.952 472.795 95.62 475.708C94.288 478.62 93.1981 481.428 93.1981 481.947C93.1981 482.466 92.313 484.815 91.231 487.167C90.149 489.519 87.7011 495.719 85.7911 500.944C83.8811 506.169 79.1081 518.769 75.1851 528.944C68.5861 546.062 60.9911 565.92 51.0911 591.944C48.8951 597.719 46.7111 603.344 46.2391 604.444C38.1291 623.356 32.521 642.802 29.081 663.944C27.276 675.04 27.26 717.454 29.057 727.944C33.486 753.792 37.908 768.46 46.7701 786.707C61.1101 816.235 80.5491 838.105 104.922 852.129C115.064 857.965 131.803 863.726 141.698 864.786L148.698 865.536L142.116 866.74C120.084 870.77 91.2201 863.825 70.8621 849.595C61.8851 843.321 60.8401 842.451 52.6711 834.444C31.9551 814.139 18.0731 788.58 8.67805 753.444C5.33305 740.933 2.24705 716.289 2.21905 701.853C2.17105 677.461 8.30705 645.535 17.18 624.018C18.217 621.502 20.623 615.394 22.526 610.444C30.406 589.942 34.3051 579.741 39.1511 566.944C41.9621 559.519 44.6571 552.544 45.1391 551.444C47.0901 546.988 57.4141 519.888 62.7131 505.312C64.5401 500.29 66.4651 495.34 66.9921 494.312C67.5191 493.285 69.302 488.844 70.953 484.444C77.074 468.139 80.4121 459.39 81.2541 457.444C83.1411 453.084 91.1981 431.402 91.1981 430.686C91.1981 430.266 92.037 428.015 93.063 425.683C95.448 420.265 104.663 396.475 116.203 365.944C119.01 358.519 123.951 345.694 127.184 337.444C132.483 323.921 139.377 305.848 146.637 286.444C149.238 279.492 149.934 277.742 152.014 272.944C152.61 271.569 154.964 265.494 157.245 259.444C165.218 238.302 169.051 228.25 179.168 201.944C192.541 167.173 194.174 162.899 200.19 146.944C205.368 133.21 206.09 131.366 208.023 126.944C209.729 123.043 219.198 98.0699 219.198 97.4739C219.198 95.6529 229.839 75.1149 234.239 68.4439C246.53 49.8079 256.251 39.3719 271.198 28.7669C278.392 23.6629 293.957 15.9359 301.698 13.6269C304.448 12.8059 306.837 12.0919 307.007 12.0399C307.177 11.9869 307.038 12.3939 306.698 12.9439ZM348.198 113.549C334.665 117.173 325.05 127.983 316.714 148.944C315.729 151.419 314.086 155.352 313.061 157.683C312.036 160.015 311.198 162.256 311.198 162.664C311.198 163.071 309.565 167.689 307.57 172.925C305.574 178.16 302.678 185.819 301.133 189.944C299.589 194.069 294.749 206.669 290.378 217.944C276.986 252.486 274.198 259.776 274.198 260.247C274.198 260.496 273.446 262.442 272.526 264.572C271.607 266.702 269.864 271.144 268.653 274.444C267.442 277.744 262.538 290.569 257.756 302.944C247.091 330.537 243.39 340.254 241.569 345.444C240.797 347.644 239.213 351.694 238.051 354.444C236.888 357.194 235.588 360.344 235.163 361.444C233.476 365.802 228.039 380.125 223.205 392.944C220.405 400.369 215.455 413.194 212.205 421.444C206.787 435.195 199.608 454.046 192.021 474.444C190.384 478.844 188.453 483.794 187.73 485.444C185.83 489.779 179.029 507.474 173.702 521.944C171.171 528.819 166.446 541.194 163.202 549.444C157.181 564.758 156.075 567.65 146.567 592.944C139.696 611.223 132.325 630.296 130.24 635.194C127.832 640.851 116.194 672.048 114.106 678.444C113.301 680.91 112.789 687.622 112.771 695.944C112.747 707.402 113.091 710.492 115.042 716.373C124.686 745.446 145.75 758.732 168.4 750.028C179.574 745.733 188.576 735.017 195.212 718.108C205.081 692.961 207.206 687.389 207.202 686.683C207.2 686.265 208.048 684.015 209.087 681.683C211.047 677.286 218.206 658.786 224.658 641.444C231.591 622.812 237.187 608.263 239.179 603.694C239.718 602.457 241.527 597.619 243.198 592.944C244.869 588.269 246.663 583.544 247.185 582.444C247.707 581.344 249.983 575.494 252.243 569.444C254.503 563.394 258.539 552.819 261.214 545.944C269.342 525.045 275.846 508.124 281.199 493.944C289.351 472.353 292.322 464.669 293.893 461.118C294.702 459.288 296.635 454.338 298.188 450.118C302.214 439.176 311.199 415.612 321.133 389.944C334.855 354.486 342.198 335.162 342.198 334.508C342.198 334.186 343.052 332.015 344.096 329.683C345.876 325.706 350.116 314.697 359.402 289.944C361.569 284.169 364.631 276.294 366.208 272.444C367.785 268.594 369.741 263.398 370.555 260.898C371.369 258.398 372.732 254.798 373.583 252.898C374.434 250.998 376.918 244.719 379.102 238.944C381.286 233.169 386.494 219.446 390.674 208.448C401.797 179.183 403.121 167.699 397.622 148.195C393.069 132.045 380.769 118.054 367.529 113.964C359.904 111.609 355.771 111.52 348.198 113.549ZM370.946 119.454C387.167 127.569 397.501 146.856 397.464 168.944C397.445 180.418 396.513 184.013 387.219 208.444C383.244 218.894 378.73 230.819 377.187 234.944C375.644 239.069 372.271 247.844 369.691 254.444C367.112 261.044 363.968 269.144 362.705 272.444C361.442 275.744 358.072 284.519 355.216 291.944C352.361 299.369 349.656 306.643 349.205 308.109C348.755 309.575 347.262 313.4 345.887 316.609C343.632 321.873 341.302 327.867 332.147 351.944C321.159 380.846 318.472 387.884 314.018 399.444C311.263 406.594 308.632 413.344 308.171 414.444C307.29 416.547 296.617 444.838 292.515 455.944C291.194 459.519 289.233 464.352 288.156 466.683C287.079 469.015 286.198 471.155 286.198 471.439C286.198 471.724 280.381 487.141 273.271 505.7C261.285 536.988 256.515 549.469 246.047 576.944C243.846 582.719 241.347 589.019 240.493 590.944C239.639 592.869 237.918 597.369 236.668 600.944C235.418 604.519 231.849 613.969 228.735 621.944C225.622 629.919 222.244 638.694 221.229 641.444C215.758 656.267 212.888 663.805 211.52 666.944C209.076 672.55 207.266 677.232 197.217 703.944C188.271 727.723 185.654 732.589 178.178 739.343C172.493 744.479 162.812 748.942 157.355 748.943L153.012 748.944L156.939 744.194C163.049 736.803 165.123 732.411 175.11 705.706C178.867 695.662 183.979 682.269 186.471 675.944C188.964 669.619 193.326 658.369 196.165 650.944C199.004 643.519 202.65 634.069 204.268 629.944C205.885 625.819 207.206 622.102 207.203 621.683C207.2 621.265 208.061 619.015 209.115 616.683C211.459 611.499 218.198 594.188 218.198 593.352C218.198 593.019 218.81 591.328 219.558 589.595C220.306 587.862 222.526 582.169 224.49 576.944C234.78 549.58 236.581 544.884 239.249 538.444C240.844 534.594 244.677 524.694 247.767 516.444C261.325 480.248 266.426 466.968 269.279 460.444C270.114 458.534 278.075 437.452 284.383 420.444C286.015 416.044 287.943 411.094 288.667 409.444C290.633 404.961 296.672 389.364 302.17 374.567C308.082 358.657 312.463 347.209 320.206 327.444C323.438 319.194 327.946 307.494 330.225 301.444C335.502 287.436 343.852 265.777 346.225 259.944C347.232 257.469 349.721 250.944 351.756 245.444C356.942 231.431 362.392 217.014 366.552 206.307C374.496 185.859 375.268 170.443 369.314 151.102C368.312 147.849 363.216 138.229 360.866 135.157C357.537 130.805 349.218 123.587 345.698 121.998L341.698 120.192L346.198 118.09C349.321 116.631 352.722 115.981 357.314 115.966C362.904 115.947 365.016 116.488 370.946 119.454ZM343.488 125.088C352.487 129.672 359.06 136.705 364.417 147.485C369.649 158.014 371.723 172.205 369.755 184.013C368.169 193.528 368.277 193.21 353.68 231.444C347.801 246.844 341.976 262.144 340.735 265.444C339.494 268.744 333.862 283.369 328.219 297.944C322.576 312.519 317.176 326.469 316.219 328.944C315.261 331.419 309.439 346.719 303.281 362.944C297.123 379.169 290.355 396.719 288.242 401.944C286.129 407.169 283.701 413.469 282.846 415.944C281.991 418.419 277.198 431.019 272.195 443.944C267.191 456.869 258.132 480.494 252.062 496.444C237.426 534.907 236.201 538.102 235.191 540.444C233.941 543.342 227.658 559.641 222.664 572.944C220.289 579.269 217.029 587.819 215.42 591.944C213.811 596.069 206.298 615.644 198.724 635.444C191.15 655.244 184.158 673.469 183.187 675.944C182.216 678.419 177.493 690.794 172.693 703.444C167.892 716.094 162.708 728.937 161.173 731.984C157.932 738.416 149.731 747.944 147.436 747.944C145.701 747.944 136.44 742.942 133.077 740.188C131.905 739.229 129.007 735.845 126.635 732.669C116.458 719.039 112.496 697.421 117.05 680.376C118.069 676.564 123.745 660.844 129.662 645.444C135.58 630.044 144.458 606.869 149.391 593.944C154.324 581.019 159.404 567.744 160.68 564.444C161.956 561.144 167.137 547.644 172.193 534.444C177.249 521.244 182.862 506.619 184.665 501.944C186.469 497.269 192.073 482.644 197.118 469.444C202.163 456.244 209.009 438.493 212.331 429.998C215.653 421.503 222.196 404.411 226.87 392.017C231.544 379.623 237.165 364.974 239.36 359.463C241.555 353.953 247.18 339.319 251.861 326.944C261.918 300.354 265.048 292.151 266.173 289.444C268.632 283.523 272.989 272.198 280.215 252.944C284.653 241.119 290.261 226.494 292.678 220.444C295.095 214.394 300.961 199.094 305.715 186.444C310.469 173.794 315.266 161.194 316.375 158.444C317.484 155.694 319.09 151.644 319.945 149.444C324.296 138.235 327.218 133.388 334.198 125.799C337.272 122.456 338.183 122.387 343.488 125.088ZM514.698 472.032C509.748 473.164 504.123 474.464 502.198 474.921C500.273 475.378 495.998 476.275 492.698 476.915C481.736 479.041 467.778 483.11 461.378 486.045C457.902 487.64 454.857 488.944 454.611 488.944C454.365 488.944 450.684 491.046 446.431 493.616C407.061 517.399 377.983 557.759 362.259 610.444C351.897 645.161 349.463 693.788 356.176 731.944C358.914 747.508 359.109 748.424 361.379 756.444C377.19 812.296 410.36 857.334 451.719 879.108C461.763 884.395 477.131 890.033 486.198 891.755C502.633 894.877 530.063 893.803 543.594 889.508C547.914 888.137 554.879 886.538 559.073 885.955C573.914 883.891 595.101 875.226 609.745 865.231C646.253 840.314 674.752 796.887 687.707 746.433C693.683 723.158 695.621 706.437 695.588 678.444C695.544 641.079 690.67 613.806 678.55 583.101C670.174 561.88 663.56 550.096 649.421 531.202C626.194 500.165 600.373 482.026 567.026 473.323C558.256 471.034 554.209 470.578 540.198 470.3C526.313 470.025 522.272 470.299 514.698 472.032ZM558.124 475.433C601.61 481.964 643.376 516.895 668.141 567.444C680.839 593.362 688.068 618.479 691.734 649.422C693.41 663.571 693.644 695 692.149 705.251C688.949 727.194 687.82 733.496 685.214 743.944C682.516 754.768 678.699 766.66 675.745 773.444C665.964 795.915 663.68 800.209 652.416 817.306C634.195 844.964 601.982 870.324 575.198 878.098C546.498 886.428 526.085 886.406 500.428 878.018C489.831 874.554 469.639 864.796 467.198 861.959C466.923 861.639 464.223 859.602 461.198 857.432C454.912 852.921 455.815 853.697 445.882 844.26C428.892 828.118 412.485 803.928 402.595 780.444C397.378 768.056 391.238 749.643 389.257 740.444C384.881 720.129 383.366 708.412 382.643 689.294C379.525 606.858 412.344 532.654 468.529 495.105C483.275 485.25 501.93 477.621 516.698 475.406C528.142 473.69 546.6 473.702 558.124 475.433ZM478.198 484.349C478.198 484.571 475.813 486.099 472.898 487.744C452.499 499.257 428.113 524.275 413.464 548.717C411.224 552.456 400.806 573.343 397.864 579.994C393.692 589.428 386.771 613.304 384.256 626.944C383.596 630.519 382.857 634.344 382.613 635.444C381.388 640.972 379.204 668.834 379.204 678.944C379.204 689.054 381.388 716.916 382.613 722.444C382.857 723.544 383.596 727.369 384.256 730.944C389.384 758.747 400.729 788.319 415.067 811.251C419.569 818.451 432.994 836.407 436.894 840.444C445.042 848.88 456.483 859.068 462.237 863.011C482.64 876.995 503.09 885.074 521.59 886.462C526.875 886.858 531.198 887.578 531.198 888.063C531.198 888.548 530.636 888.948 529.948 888.952C529.261 888.957 524.706 889.418 519.826 889.977C497.634 892.519 467.858 884.977 444.263 870.837C431.203 863.01 412.547 845.708 400.948 830.666C397.236 825.851 394.198 821.636 394.198 821.299C394.198 820.962 392.473 818.157 390.364 815.065C385.574 808.041 376.658 790.304 371.944 778.421C367.828 768.042 360.617 742.495 359.109 732.944C358.544 729.369 357.63 723.519 357.077 719.944C355.445 709.39 354.816 666.646 356.149 656.944C362.059 613.943 371.092 586.669 389.815 555.289C400.778 536.915 419.238 516.804 435.999 504.974C448.538 496.125 459.498 489.944 462.653 489.944C463.32 489.944 464.191 489.617 464.59 489.218C465.321 488.488 476.049 484.146 477.448 484.014C477.861 483.976 478.198 484.126 478.198 484.349ZM521.645 584.347C499.742 591.207 480.381 612.142 471.291 638.793C464.587 658.449 462.843 675.869 465.669 694.944C469.4 720.129 478.46 740.125 492.683 754.566C506.441 768.534 517.863 773.867 535.698 774.651C545.602 775.086 547.481 774.876 554.557 772.545C582.064 763.484 602.504 736.188 609.296 699.444C610.929 690.614 610.913 665.359 609.271 657.444C604.003 632.061 594.918 614.409 579.804 600.193C572.469 593.293 567.115 589.913 557.015 585.803C550.572 583.18 548.986 582.95 537.844 583.011C531.023 583.048 523.921 583.634 521.645 584.347ZM555.698 589.475C565.901 593.266 571.641 597.182 581.305 606.943C588.831 614.544 590.611 617.069 595.477 627.04C608.545 653.821 611.201 680.572 603.655 709.391C600.593 721.085 593.309 736.353 586.682 744.965C577.4 757.028 559.578 768.773 548.198 770.327L543.698 770.942L546.682 768.693C562.006 757.146 574.773 736.516 579.997 714.861C585.485 692.112 584.995 673.415 578.257 648.444C577.812 646.794 576.479 643.033 575.295 640.087C573.376 635.311 572.102 632.801 567.063 623.865C563.868 618.199 555.354 608.292 549.606 603.551C542.221 597.461 530.439 591.218 524.198 590.089L519.698 589.275L524.198 588.055C526.673 587.385 529.148 586.64 529.698 586.4C532.677 585.1 549.174 587.051 555.698 589.475ZM521.577 593.454C544.041 599.306 561.298 615.303 571.729 639.944C573.242 643.519 574.837 647.794 575.273 649.444C580.281 668.387 581.682 681.448 580.176 695.164C578.248 712.731 575.586 722.165 568.579 736.272C561.623 750.277 553.268 760.008 541.312 768.032C536.942 770.965 536.328 771.097 529.698 770.541C518.978 769.642 506.768 763.266 496.499 753.206C480.107 737.148 471.433 717.829 468.17 690.115C463.801 653.01 480.25 613.118 507.175 595.523C513.415 591.446 513.705 591.404 521.577 593.454Z" fill="black"/>
</svg>
